<?xml version="1.0" encoding="utf-8"?>
<!-- Generator: Adobe Illustrator 19.0.1, SVG Export Plug-In . SVG Version: 6.00 Build 0)  -->
<svg version="1.1" id="Layer_1" xmlns="http://www.w3.org/2000/svg" xmlns:xlink="http://www.w3.org/1999/xlink" x="0px" y="0px"
	 viewBox="0 0 483.2 31.9" enable-background="new 0 0 483.2 31.9" xml:space="preserve">
<g>
	<g>
		<polygon points="0,3.1 6.6,3.1 6.6,31.4 9.4,31.4 9.4,3.1 16,3.1 16,0.4 0,0.4 		"/>
		<polygon points="44.1,13.1 28.6,13.1 28.6,0.4 25.9,0.4 25.9,31.4 28.6,31.4 28.6,15.8 44.1,15.8 44.1,31.4 46.8,31.4 46.8,0.4 
			44.1,0.4 		"/>
		<polygon points="57.9,31.4 73.3,31.4 73.3,28.7 60.6,28.7 60.6,15.9 73.3,15.9 73.3,13.1 60.6,13.1 60.6,3.1 73.3,3.1 73.3,0.4 
			57.9,0.4 		"/>
	</g>
	<g>
		<circle fill="#E8253B" cx="272.7" cy="16" r="15.9"/>
		<path d="M127.4,1.2c-2.1-0.8-4.5-1.2-7.1-1.2c-4.7,0-8.5,1.5-11.5,4.5c-2.9,2.9-4.4,6.8-4.4,11.4c0,4.7,1.5,8.5,4.5,11.5
			c2.9,2.9,6.8,4.4,11.4,4.4c0.4,0,0.8,0,1.2,0c0.4,0,0.7,0,1-0.1c2.8-0.3,5-1,6.6-2.2l2.2-1.6v-3.2l-0.8,0.6c-1.6,1.2-2.9,2-4,2.5
			c-1.8,0.9-3.9,1.3-6.3,1.3c-3.8,0-7.1-1.3-9.5-3.7c-2.4-2.4-3.7-5.6-3.7-9.5c0-3.8,1.3-7,3.7-9.5c2.5-2.5,5.7-3.7,9.5-3.7
			c2.2,0,4.4,0.4,6.5,1.3c1.3,0.6,2.6,1.3,3.7,2.3l0.8,0.7V3.4l-0.2-0.1C130,2.4,128.7,1.7,127.4,1.2z"/>
		<path d="M152,16c1.1-0.3,2-0.8,2.8-1.5c0.8-0.7,1.4-1.5,1.9-2.5c0.4-1,0.6-2.2,0.6-3.6c0-1.3-0.2-2.4-0.7-3.4
			c-0.5-1-1.1-1.8-1.9-2.5C154,1.8,153,1.3,152,0.9c-1.1-0.3-2.2-0.5-3.3-0.5h-7.4v31h2.7v-15h2.5l9.5,15h3.2l-9.6-15
			C150.4,16.3,151.2,16.2,152,16z M143.9,3.1h4.7c0.8,0,1.6,0.1,2.4,0.3c0.7,0.2,1.4,0.5,1.9,1c0.5,0.4,0.9,0.9,1.2,1.6
			c0.3,0.6,0.5,1.4,0.5,2.3c0,1.8-0.5,3.1-1.5,4c-1,0.9-2.4,1.4-4,1.4h-5.2V3.1z"/>
		<rect x="170" y="0.4" width="2.7" height="31"/>
		<polygon points="202.7,22 192.4,0.4 184,31.4 186.8,31.4 192.9,9.3 202.7,29.7 212.5,9.4 218.6,31.4 221.3,31.4 213,0.3 		"/>
		<path d="M242.8,15c-1-0.6-2.1-1.2-3.5-1.8c-2.1-0.9-3.4-1.7-4.1-2.2c-1.1-1-1.7-2.1-1.7-3.4c0-1.5,0.5-2.6,1.6-3.5
			c1-0.9,2.2-1.3,3.8-1.3c1.5,0,2.7,0.3,3.6,0.9c0.7,0.4,1.3,1,1.8,1.9l0.2,0.4l2.5-1.1l-0.3-0.5c-1.5-2.8-4.2-4.2-7.9-4.2
			c-2.2,0-4.2,0.7-5.7,2.1c-1.6,1.4-2.4,3.2-2.4,5.4c0,2.2,0.8,4,2.3,5.4c0.9,0.8,2.6,1.8,5,2.9c1.2,0.6,2.3,1.1,3.1,1.5
			c0.8,0.4,1.3,0.8,1.7,1.2c1.4,1.2,2.1,2.7,2.1,4.6c0,2-0.6,3.4-1.7,4.4c-1.1,1-2.7,1.5-4.8,1.5c-3.6,0-5.7-1.6-6.7-5l-0.1-0.5
			l-2.7,0.9l0.1,0.5c1.4,4.6,4.5,6.9,9.3,6.9c1.5,0,2.9-0.2,4-0.6c3.4-1.3,5.2-4,5.2-8c0-2.5-0.9-4.6-2.6-6.3
			C244.6,16.2,243.8,15.6,242.8,15z"/>
		<polygon points="323.3,24.3 300.9,0.4 300.9,31.4 303.6,31.4 303.6,7.9 326,31.4 326,0.4 323.3,0.4 		"/>
	</g>
	<g>
		<path d="M371.9,13.7c1.7-1.3,2.5-3.2,2.5-5.6c0-2.4-0.8-4.4-2.4-5.8c-1.5-1.3-3.4-1.9-5.9-1.9h-7.8v31h9.9c2.7,0,5.1-0.9,7-2.6
			c1.9-1.7,2.9-3.9,2.9-6.6c0-2.3-0.7-4.2-2-5.8C375,15.1,373.6,14.2,371.9,13.7z M368.3,28.7h-7.2V15.8h7.2c2,0,3.7,0.6,5.1,1.7
			c1.4,1.2,2.1,2.7,2.1,4.7c0,1.9-0.7,3.5-2.1,4.7C372,28.1,370.3,28.7,368.3,28.7z M366.6,13.1h-5.5V3.1h5.3c1.5,0,2.8,0.5,3.9,1.4
			c1,0.9,1.5,2,1.5,3.6c0,1.5-0.5,2.7-1.4,3.6C369.3,12.6,368.1,13.1,366.6,13.1z"/>
		<path d="M401.1,16c1.1-0.3,2-0.8,2.8-1.5c0.8-0.7,1.4-1.5,1.9-2.5c0.4-1,0.6-2.2,0.6-3.6c0-1.3-0.2-2.4-0.7-3.4
			c-0.5-1-1.1-1.8-1.9-2.5c-0.8-0.7-1.7-1.2-2.8-1.5c-1.1-0.3-2.2-0.5-3.3-0.5h-7.4v31h2.7v-15h2.5l9.5,15h3.2l-9.6-15
			C399.4,16.3,400.3,16.2,401.1,16z M392.9,3.1h4.7c0.8,0,1.6,0.1,2.4,0.3c0.7,0.2,1.4,0.5,1.9,1c0.5,0.4,0.9,0.9,1.2,1.6
			c0.3,0.6,0.5,1.4,0.5,2.3c0,1.8-0.5,3.1-1.5,4c-1,0.9-2.4,1.4-4,1.4h-5.2V3.1z"/>
		<rect x="419" y="0.4" width="2.7" height="31"/>
		<path d="M443.3,0.4h-10.5v31h10.5c4.2,0,7.6-1.6,10.3-4.7c2.4-2.9,3.6-6.6,3.6-10.8c0-4.2-1.2-7.8-3.7-10.7
			C450.9,2,447.5,0.4,443.3,0.4z M443.3,28.7h-7.8V3.1h7.8c3.4,0,6.1,1.3,8.2,3.8c2,2.4,3,5.4,3,8.9c0,4-1.2,7.2-3.5,9.5
			C448.8,27.6,446.2,28.7,443.3,28.7z"/>
		<polygon points="483.2,3.1 483.2,0.4 467.8,0.4 467.8,31.4 483.2,31.4 483.2,28.7 470.6,28.7 470.6,15.9 483.2,15.9 483.2,13.1 
			470.6,13.1 470.6,3.1 		"/>
	</g>
</g>
</svg>
